<?xml version="1.0" encoding="UTF-8" standalone="no"?>
<!DOCTYPE svg PUBLIC "-//W3C//DTD SVG 1.1//EN" "http://www.w3.org/Graphics/SVG/1.1/DTD/svg11.dtd">
<svg version="1.1" id="Layer_1" xmlns="http://www.w3.org/2000/svg" xmlns:xlink="http://www.w3.org/1999/xlink" x="0px" y="0px" width="1920px" height="1200px" viewBox="0 0 1920 1200" enable-background="new 0 0 1920 1200" xml:space="preserve"> 
<g xmlns="http://www.w3.org/2000/svg" fill="none" stroke="none" stroke-width="none" stroke-linecap="butt" stroke-linejoin="miter" stroke-miterlimit="10" stroke-dasharray="" stroke-dashoffset="0" font-family="sans-serif" font-weight="normal" font-size="12" text-anchor="start" mix-blend-mode="normal">
<image x="0" y="-60" width="1920" height="1200" xmlns:xlink="http://www.w3.org/1999/xlink" xlink:href="http://localhost:8000/webclient/static/tag_images/frame0011.jpg" stroke-width="1"/><path d="M499.79203,147c0,-33.25195 26.95603,-60.20797 60.20797,-60.20797c33.25195,0 60.20797,26.95603 60.20797,60.20797c0,33.25195 -26.95603,60.20797 -60.20797,60.20797c-33.25195,0 -60.20797,-26.95603 -60.20797,-60.20797z" fill="#808080" stroke="#ffff00" stroke-width="3" opacity="0.3"/><path d="M660.2599,186.5c0,-64.47377 52.26632,-116.7401 116.7401,-116.7401c64.47377,0 116.7401,52.26632 116.7401,116.7401c0,64.47377 -52.26632,116.7401 -116.7401,116.7401c-64.47377,0 -116.7401,-52.26632 -116.7401,-116.7401z" fill="#808080" stroke="#ffff00" stroke-width="3" opacity="0.3"/><path d="M283.49846,314c0,-44.73592 36.26563,-81.00154 81.00154,-81.00154c44.73592,0 81.00154,36.26563 81.00154,81.00154c0,44.73592 -36.26563,81.00154 -81.00154,81.00154c-44.73592,0 -81.00154,-36.26563 -81.00154,-81.00154z" fill="#808080" stroke="#ffff00" stroke-width="3" opacity="0.3"/>
</g>
</svg>